<svg width="76" height="87" viewBox="0 0 76 87" fill="none" xmlns="http://www.w3.org/2000/svg">
<g clip-path="url(#clip0_155_3186)">
<path d="M41.62 42.6602L33.68 39.0602L33.71 36.2302C33.71 34.3202 32.03 32.6902 28.67 31.3602C26.34 30.4402 23.79 29.9902 21.01 29.9902C18.23 29.9902 15.68 30.4502 13.35 31.3602C9.99 32.7202 8.31 34.3402 8.31 36.2302V73.2702C8.31 75.1802 9.99 76.8102 13.35 78.1402C15.68 79.0602 18.23 79.5102 21.01 79.5102C23.79 79.5102 26.34 79.0502 28.67 78.1402C32.03 76.7802 33.71 75.1602 33.71 73.2702V63.2802H34.13L42.04 67.0302V73.2702C42.04 78.3502 38.89 82.1902 32.59 84.8002C29.07 86.2702 25.21 87.0102 21.02 87.0102C16.83 87.0102 12.97 86.2702 9.45 84.8002C3.15 82.1902 0 78.3402 0 73.2702V36.2302C0 31.1502 3.15 27.3102 9.45 24.7002C12.97 23.2302 16.83 22.4902 21.02 22.4902C25.21 22.4902 29.07 23.2302 32.59 24.7002C38.89 27.3102 42.04 31.1502 42.04 36.2302V42.6702H41.62V42.6602Z" fill="#81FE88"/>
<path d="M42.03 67.0194C42.03 67.0194 34.86 63.9194 33.68 60.3594L33.71 64.6794L42.03 67.0194Z" fill="#81FE88"/>
<path d="M33.56 44.34L41.5 47.94L41.47 50.77C41.47 52.68 43.15 54.31 46.51 55.64C48.84 56.56 51.39 57.01 54.17 57.01C56.94 57.01 59.5 56.55 61.83 55.64C65.19 54.28 66.87 52.66 66.87 50.77V13.73C66.87 11.82 65.19 10.19 61.83 8.86C59.5 7.94 56.95 7.49 54.17 7.49C51.4 7.49 48.84 7.95 46.51 8.86C43.15 10.22 41.47 11.84 41.47 13.73V23.72H41.05L33.14 19.97V13.73C33.14 8.65 36.29 4.81 42.59 2.2C46.12 0.74 49.98 0 54.16 0C58.34 0 62.21 0.74 65.73 2.21C72.03 4.82 75.18 8.66 75.18 13.74V50.77C75.18 55.85 72.03 59.69 65.73 62.3C62.21 63.77 58.35 64.51 54.16 64.51C49.97 64.51 46.11 63.77 42.59 62.3C36.29 59.69 33.14 55.85 33.14 50.77V44.33H33.56V44.34Z" fill="#81FE88"/>
<path d="M33.15 19.9805C33.15 19.9805 40.32 23.0805 41.5 26.6405L41.47 22.3205L33.15 19.9805Z" fill="#81FE88"/>
</g>
<defs>
<clipPath id="clip0_155_3186">
<rect width="75.18" height="87" fill="white"/>
</clipPath>
</defs>
</svg>
